<?xml version="1.0" encoding="utf-8"?>
<!-- Generator: Adobe Illustrator 26.0.2, SVG Export Plug-In . SVG Version: 6.00 Build 0)  -->
<svg version="1.1" id="Capa_1" xmlns="http://www.w3.org/2000/svg" xmlns:xlink="http://www.w3.org/1999/xlink" x="0px" y="0px"
	 viewBox="0 0 512 512" style="enable-background:new 0 0 512 512;" xml:space="preserve">
<style type="text/css">
	.st0{fill:#522689;}
</style>
<g>
	<path class="st0" d="M480,327.3c-19.1-13.4-42.3-20.5-59.9-5.1L350.7,384l-84.8,0c19.5,0,35.3-15.8,35.3-35.3
		c0-19.5-15.8-35.3-35.3-35.3H151.3c-9.7,0-23.8,4.9-31.4,11l-89.1,76c-6.6,5.6-7.7,15.4-2.5,22.4l61.5,82.5
		c5.4,7.3,15.7,8.8,23,3.5l59.8-43.7c7.8-5.8,22-10.6,31.7-10.6h158.7c8.5,0,16.8-3.1,23.2-8.7l95.9-93.2
		C489.5,345.4,488.5,333.2,480,327.3L480,327.3z"/>
	<path class="st0" d="M256,185c13.6,0,25-7.8,25-17c0-9.6-11.4-25-25-25s-25,15.4-25,25C231,177.2,242.4,185,256,185z"/>
	<path class="st0" d="M256,272c75,0,136-61,136-136S331,0,256,0S120,61,120,136S181,272,256,272z M320,97c8.3,0,15,6.7,15,15
		s-6.7,15-15,15s-15-6.7-15-15S311.7,97,320,97z M280,65c8.3,0,15,6.7,15,15s-6.7,15-15,15s-15-6.7-15-15S271.7,65,280,65z M311,168
		c0,25.9-24.7,47-55,47s-55-21.1-55-47c0-25.4,24-55,55-55S311,142.6,311,168z M232,65c8.3,0,15,6.7,15,15s-6.7,15-15,15
		c-8.3,0-15-6.7-15-15S223.8,65,232,65z M192,97c8.3,0,15,6.7,15,15s-6.7,15-15,15s-15-6.7-15-15S183.7,97,192,97z"/>
</g>
</svg>
