<?xml version="1.0" encoding="utf-8"?>
<!-- Generator: Adobe Illustrator 26.0.2, SVG Export Plug-In . SVG Version: 6.00 Build 0)  -->
<svg version="1.1" id="Capa_1" xmlns="http://www.w3.org/2000/svg" xmlns:xlink="http://www.w3.org/1999/xlink" x="0px" y="0px"
	 viewBox="0 0 512 512" style="enable-background:new 0 0 512 512;" xml:space="preserve">
<style type="text/css">
	.st0{fill:#522689;}
</style>
<g>
	<path class="st0" d="M472,452H40c-8.3,0-15,6.7-15,15v30c0,8.3,6.7,15,15,15h432c8.3,0,15-6.7,15-15v-30
		C487,458.7,480.3,452,472,452z"/>
	<path class="st0" d="M184,177h144c8.8,0,16-7.2,16-16V16c0-8.8-7.2-16-16-16H184c-8.8,0-16,7.2-16,16v145
		C168,169.8,175.2,177,184,177z M224,74h17V57c0-8.3,6.7-15,15-15s15,6.7,15,15v17h17c8.3,0,15,6.7,15,15s-6.7,15-15,15h-17v17
		c0,8.3-6.7,15-15,15s-15-6.7-15-15v-17h-17c-8.3,0-15-6.7-15-15S215.7,74,224,74z"/>
	<path class="st0" d="M54.6,239.7l86.8-48.8c-2.2-4.2-3.4-8.9-3.4-13.9v-68.1L16.5,179c-7.5,4.3-9.8,14.1-5,21.3l23.1,34.8
		C39,241.7,47.8,243.7,54.6,239.7L54.6,239.7z"/>
	<path class="st0" d="M495.5,179L374,108.9V177c0,5-1.2,9.8-3.4,13.9l86.4,49c6.9,4,15.6,1.9,20-4.7l23.6-35
		C505.3,193.1,503,183.3,495.5,179L495.5,179z"/>
	<path class="st0" d="M65,310h56v48H65V310z"/>
	<path class="st0" d="M391,310h56v48h-56V310z"/>
	<path class="st0" d="M256,329c-13.6,0-25,15.4-25,25c0,9.2,11.4,17,25,17c13.6,0,25-7.8,25-17C281,344.4,269.6,329,256,329z"/>
	<path class="st0" d="M447,268.4c-3.6-1.5,5.1,3.3-108.9-61.4H174C59.4,271.4,68.3,266.6,65,268v12h71c8.3,0,15,6.7,15,15v78
		c0,8.3-6.7,15-15,15H65v34h382v-34h-71c-8.3,0-15-6.7-15-15v-78c0-8.3,6.7-15,15-15h71V268.4z M280,251c8.3,0,15,6.7,15,15
		s-6.7,15-15,15s-15-6.7-15-15S271.7,251,280,251z M232,251c8.3,0,15,6.7,15,15s-6.7,15-15,15c-8.3,0-15-6.7-15-15
		S223.8,251,232,251z M177,298c0-8.3,6.7-15,15-15s15,6.7,15,15s-6.7,15-15,15S177,306.3,177,298z M256,401c-30.3,0-55-21.1-55-47
		c0-25.4,24-55,55-55s55,29.6,55,55C311,379.9,286.3,401,256,401z M320,313c-8.3,0-15-6.7-15-15s6.7-15,15-15s15,6.7,15,15
		S328.3,313,320,313z"/>
</g>
</svg>
