<?xml version="1.0" encoding="utf-8"?>
<!-- Generator: Adobe Illustrator 26.0.2, SVG Export Plug-In . SVG Version: 6.00 Build 0)  -->
<svg version="1.1" id="Capa_1" xmlns="http://www.w3.org/2000/svg" xmlns:xlink="http://www.w3.org/1999/xlink" x="0px" y="0px"
	 viewBox="0 0 512 512" style="enable-background:new 0 0 512 512;" xml:space="preserve">
<style type="text/css">
	.st0{fill:#522689;}
</style>
<g>
	<path class="st0" d="M431.4,31c0-17.2-13.9-31-31-31c-8.3,0-16.1,3.2-21.9,9.1L158,229.5c-12.3-6-27.7-4-38,6.4l-57.3,57.8
		l75.6,75.6l57.3-57.8c10.5-10.5,12.3-25.9,6.3-38.1L391.2,84.1c15.7,107.2-49.5,137.4-30.5,245.5c8.5-5.3,18.8-7.8,29.3-6.4
		c-7.9-46.4,2.4-76.3,14-109.7c13.4-38.7,28.6-82.5,13-155.1l5.3-5.3C428.2,47.1,431.4,39.3,431.4,31z"/>
	<path class="st0" d="M373.4,357.6c-1.1,1.2-26.2,28.9-26.2,74.3c0,45.2,24.9,73.8,26,75c6,6.7,16.5,6.7,22.5,0
		c1.1-1.2,26-29.8,26-75c0-45.4-25.1-73.1-26.2-74.3C389.5,351.2,379.4,351.2,373.4,357.6L373.4,357.6z"/>
	<path class="st0" d="M26.7,330c-13,13-13,34,0,46.9l28.7,28.7c13,13,34,13,46.9,0c14.2-14.2,11-11,14.9-14.9L41.5,315L26.7,330z"/>
	<path class="st0" d="M466.8,381.1c-9.2-9.2-21-15.5-32.7-19.7c18.3,34.2,22.6,74.6,11.6,112.7c18.1,4.2,33.1,4.3,34.3,4.3
		c8.3,0,15.1-6.7,15.1-15.1C495.1,461.2,494.6,409,466.8,381.1L466.8,381.1z"/>
	<path class="st0" d="M301.6,381.1c-27.9,27.9-28.3,80.1-28.3,82.3c0,8.2,6.6,15.1,15.1,15.1c1.2,0,16.5-0.1,34.8-4.4
		c-10.5-36.4-7.4-77.1,11.8-112.8C323,365.4,311,371.7,301.6,381.1L301.6,381.1z"/>
</g>
</svg>
