<?xml version="1.0" encoding="utf-8"?>
<!-- Generator: Adobe Illustrator 26.0.2, SVG Export Plug-In . SVG Version: 6.00 Build 0)  -->
<svg version="1.1" id="Capa_1" xmlns="http://www.w3.org/2000/svg" xmlns:xlink="http://www.w3.org/1999/xlink" x="0px" y="0px"
	 viewBox="0 0 512 512" style="enable-background:new 0 0 512 512;" xml:space="preserve">
<style type="text/css">
	.st0{fill:#522689;}
</style>
<g>
	<path class="st0" d="M34.6,193.1c4.4,6.6,13.1,8.6,20,4.7L256.5,84.1L456.9,198c6.9,4,15.6,1.9,20-4.7l23.6-35
		c4.8-7.2,2.5-17-5-21.3l-208-120c-2.3-1.3-4.9-2-7.5-2h-48c-2.6,0-5.2,0.7-7.5,2l-208,120c-7.5,4.3-9.8,14.1-5,21.3L34.6,193.1z"/>
	<path class="st0" d="M439,408V222.3L256.4,118.6L73,221.8V408h112v-52c0-39.1,31.9-71,71-71s71,31.9,71,71v52H439z M312,267
		c-16.2,0-30.1-9.9-36-24h-40c-5.9,14.1-19.8,24-36,24c-8.3,0-15-6.7-15-15s6.7-15,15-15c5,0,9-4,9-9s-4-9-9-9c-8.3,0-15-6.7-15-15
		s6.7-15,15-15c16.2,0,30.1,9.9,36,24h40c5.9-14.1,19.8-24,36-24c8.3,0,15,6.7,15,15s-6.7,15-15,15c-5,0-9,4-9,9s4,9,9,9
		c8.3,0,15,6.7,15,15S320.3,267,312,267z"/>
	<path class="st0" d="M215,356v52h82v-52c0-22.6-18.4-41-41-41S215,333.4,215,356z"/>
	<path class="st0" d="M497,438H15c-8.3,0-15,6.7-15,15v29c0,8.3,6.7,15,15,15h482c8.3,0,15-6.7,15-15v-29
		C512,444.7,505.3,438,497,438z"/>
</g>
</svg>
