<?xml version="1.0" encoding="utf-8"?>
<!-- Generator: Adobe Illustrator 26.0.2, SVG Export Plug-In . SVG Version: 6.00 Build 0)  -->
<svg version="1.1" id="Capa_1" xmlns="http://www.w3.org/2000/svg" xmlns:xlink="http://www.w3.org/1999/xlink" x="0px" y="0px"
	 viewBox="0 0 512 512" style="enable-background:new 0 0 512 512;" xml:space="preserve">
<style type="text/css">
	.st0{fill:#522689;}
</style>
<g>
	<path class="st0" d="M234,218h44c13.8,0,26.1,6.2,34.4,16H472l-33.4-133.6C436.9,93.7,430.9,89,424,89h-97V40c0-8.3-6.7-15-15-15
		H200c-8.3,0-15,6.7-15,15v49H88c-6.9,0-12.9,4.7-14.6,11.4L40,234h159.6C207.9,224.2,220.2,218,234,218z M271,172
		c0,8.3-6.7,15-15,15s-15-6.7-15-15v-32c0-8.3,6.7-15,15-15s15,6.7,15,15V172z M327,172c0,8.3-6.7,15-15,15s-15-6.7-15-15v-32
		c0-8.3,6.7-15,15-15s15,6.7,15,15V172z M353,140c0-8.3,6.7-15,15-15s15,6.7,15,15v32c0,8.3-6.7,15-15,15s-15-6.7-15-15V140z
		 M215,55h82v34h-82V55z M159,172c0,8.3-6.7,15-15,15s-15-6.7-15-15v-32c0-8.3,6.7-15,15-15s15,6.7,15,15V172z M185,172v-32
		c0-8.3,6.7-15,15-15s15,6.7,15,15v32c0,8.3-6.7,15-15,15S185,180.3,185,172z"/>
	<path class="st0" d="M234,248c-8.3,0-15,6.7-15,15v66c0,8.3,6.7,15,15,15h44c8.3,0,15-6.7,15-15v-66c0-8.3-6.7-15-15-15H234z"/>
	<path class="st0" d="M497,264H323v64h174c8.3,0,15-6.7,15-15v-34C512,270.7,505.3,264,497,264z"/>
	<path class="st0" d="M189,264H15c-8.3,0-15,6.7-15,15v34c0,8.3,6.7,15,15,15h174V264z"/>
	<path class="st0" d="M278,374h-44c-13.8,0-26.1-6.2-34.4-16H40.8L56,413H456l15.3-55H312.4C304.1,367.8,291.8,374,278,374z"/>
	<path class="st0" d="M73.5,476c1.8,6.5,7.7,11,14.5,11h336c6.7,0,12.6-4.5,14.5-11l9.2-33H64.4L73.5,476z"/>
</g>
</svg>
