<?xml version="1.0" encoding="utf-8"?>
<!-- Generator: Adobe Illustrator 26.0.2, SVG Export Plug-In . SVG Version: 6.00 Build 0)  -->
<svg version="1.1" id="Capa_1" xmlns="http://www.w3.org/2000/svg" xmlns:xlink="http://www.w3.org/1999/xlink" x="0px" y="0px"
	 viewBox="0 0 512 512" style="enable-background:new 0 0 512 512;" xml:space="preserve">
<style type="text/css">
	.st0{fill:#522689;}
</style>
<g>
	<path class="st0" d="M120,58v167h56V18h-16C137.9,18,120,35.9,120,58z"/>
	<path class="st0" d="M262,58c0-22.1-17.9-40-40-40h-16v207h56V58z"/>
	<circle class="st0" cx="88" cy="406" r="17"/>
	<path class="st0" d="M104,270v49.5c-5.2-1-10.5-1.5-16-1.5c-48.6,0-88,39.4-88,88c0,48.6,39.4,88,88,88c48.6,0,88-39.4,88-88V255
		h-57C110.7,255,104,261.7,104,270z M135,406c0,25.9-21.1,47-47,47s-47-21.1-47-47s21.1-47,47-47S135,380.1,135,406z"/>
	<circle class="st0" cx="294" cy="406" r="17"/>
	<path class="st0" d="M294,318c-5.5,0-10.8,0.5-16,1.5V270c0-8.3-6.7-15-15-15h-57v149.9c0,48.5,38.8,88.7,87.3,89.1
		c48.9,0.4,88.7-39.2,88.7-88C382,357.4,342.6,318,294,318z M294,453c-25.9,0-47-21.1-47-47s21.1-47,47-47s47,21.1,47,47
		S319.9,453,294,453z"/>
	<path class="st0" d="M472,17H352.4c-8.1,0-15,6.2-15.4,14.3c-0.4,8.6,6.5,15.7,15,15.7h88v26h-87.6c-8.1,0-15,6.2-15.4,14.3
		c-0.4,8.6,6.5,15.7,15,15.7h88v26h-87.6c-8.1,0-15,6.2-15.4,14.3c-0.4,8.6,6.5,15.7,15,15.7h88v26h-87.6c-8.1,0-15,6.2-15.4,14.3
		c-0.4,8.6,6.5,15.7,15,15.7h88v26h-87.6c-8.1,0-15,6.2-15.4,14.3c-0.4,8.6,6.5,15.7,15,15.7h88v209c0,8.3,6.7,15,15,15h17
		c22.1,0,40-17.9,40-40V57C512,34.9,494.1,17,472,17z"/>
</g>
</svg>
