<?xml version="1.0" encoding="utf-8"?>
<!-- Generator: Adobe Illustrator 26.0.2, SVG Export Plug-In . SVG Version: 6.00 Build 0)  -->
<svg version="1.1" id="Layer_1" xmlns="http://www.w3.org/2000/svg" xmlns:xlink="http://www.w3.org/1999/xlink" x="0px" y="0px"
	 viewBox="0 0 96 96" style="enable-background:new 0 0 96 96;" xml:space="preserve">
<style type="text/css">
	.st0{fill:#FFFFFF;}
</style>
<g>
	<path class="st0" d="M40,38c0,1.1,0.9,2,2,2s2-0.9,2-2c0-3.3-2.7-6-6-6s-6,2.7-6,6c0,1.1,0.9,2,2,2s2-0.9,2-2s0.9-2,2-2
		S40,36.9,40,38z"/>
	<path class="st0" d="M58,32c-3.3,0-6,2.7-6,6c0,1.1,0.9,2,2,2s2-0.9,2-2s0.9-2,2-2s2,0.9,2,2s0.9,2,2,2s2-0.9,2-2
		C64,34.7,61.3,32,58,32z"/>
	<path class="st0" d="M56,68c-1.1,0-2,0.9-2,2s-0.9,2-2,2s-2-0.9-2-2v-2.2c3.5-0.7,6-3,6-5.8s-3.5-6-8-6s-8,2.6-8,6
		c0,3.4,2.5,5.1,6,5.8V70c0,1.1-0.9,2-2,2s-2-0.9-2-2s-0.9-2-2-2s-2,0.9-2,2c0,3.3,2.7,6,6,6c1.5,0,2.9-0.6,4-1.6
		c1.1,1,2.5,1.6,4,1.6c3.3,0,6-2.7,6-6C58,68.9,57.1,68,56,68z M44,62c0-0.8,1.6-2,4-2s4,1.2,4,2s-1.6,2-4,2S44,62.8,44,62z"/>
	<path class="st0" d="M81.2,9.2c-2.6-1.7-5.9-1.6-9.8,0.2l-10.7,5.7c-8-4.1-17.4-4.1-25.4,0L24.5,9.4c-3.9-1.8-7.1-1.9-9.7-0.2
		C8.5,13.2,8,26.2,8,44c0,2.7,0,10,7,10c1.8,0,3.5-0.4,5-1.3V60c0,15.5,12.5,28,28,28s28-12.5,28-28v-7.3c1.5,0.9,3.2,1.3,5,1.3
		c7,0,7-7.3,7-10C88,26.1,87.5,13.2,81.2,9.2z M20,44c0,6-3.8,6-5,6s-3,0-3-6c0-12.6,0-28.3,4.9-31.4c1.4-0.9,3.4-0.8,5.8,0.4
		l8.7,4.5C24.2,22.8,20,31.1,20,40V44L20,44z M72,60c0,13.3-10.7,24-24,24S24,73.3,24,60V40c0-13.3,10.7-24,24-24s24,10.7,24,24V60z
		 M81,50c-1.2,0-5,0-5-6l0,0v-4c0-8.9-4.2-17.2-11.4-22.5l8.6-4.5c2.5-1.2,4.5-1.3,5.9-0.4C84,15.7,84,31.4,84,44
		C84,50,82.4,50,81,50z"/>
</g>
</svg>
