<?xml version="1.0" encoding="utf-8"?>
<!-- Generator: Adobe Illustrator 26.0.2, SVG Export Plug-In . SVG Version: 6.00 Build 0)  -->
<svg version="1.1" id="Layer_1" xmlns="http://www.w3.org/2000/svg" xmlns:xlink="http://www.w3.org/1999/xlink" x="0px" y="0px"
	 viewBox="0 0 96 96" style="enable-background:new 0 0 96 96;" xml:space="preserve">
<style type="text/css">
	.st0{fill:#FFFFFF;}
</style>
<g>
	<path class="st0" d="M48,45.1c-7.8,0-13.8,6.5-13.8,12.1S39.5,66,48,66s13.8-3.4,13.8-8.8S55.8,45.1,48,45.1z M48,62
		c-4.8,0-9.8-1.3-9.8-4.8s4.5-8.1,9.8-8.1s9.8,4.4,9.8,8.1S52.8,62,48,62z"/>
	<path class="st0" d="M41.3,42.2H42c1.7-0.3,3-1.5,3.6-3.1c0.6-1.5,0.8-3.2,0.5-4.8c-0.7-3.9-3.5-6.6-6.5-6.1s-4.8,4-4.1,7.9
		S38.6,42.2,41.3,42.2z M40.3,32.2L40.3,32.2c0.5,0,1.6,1,1.9,2.8c0.1,0.8,0.1,1.7-0.2,2.5c-0.2,0.4-0.5,0.7-0.7,0.7
		s-1.5-0.9-1.9-2.7S39.8,32.3,40.3,32.2z"/>
	<path class="st0" d="M54,42.2h0.7c2.7,0,5.2-2.5,5.8-6.1s-1.1-7.3-4.1-7.9s-5.8,2.2-6.5,6.1c-0.3,1.6-0.1,3.3,0.5,4.8
		C51,40.7,52.3,41.9,54,42.2z M53.8,35c0.3-1.8,1.4-2.8,1.9-2.8l0,0c0.5,0.1,1.2,1.4,0.9,3.3s-1.5,2.9-1.9,2.7s-0.5-0.3-0.7-0.7
		C53.7,36.7,53.7,35.8,53.8,35z"/>
	<path class="st0" d="M34.7,43.5c-0.6-1.6-1.6-2.9-2.9-3.9c-1.3-1.1-3-1.4-4.6-0.9c-2.8,1.1-4,4.8-2.6,8.5c0.6,1.6,1.5,2.9,2.8,4
		c0.9,0.7,2,1.1,3.2,1.1c0.5,0,1-0.1,1.4-0.3c1.6-0.6,2.7-2,3-3.6C35.4,46.8,35.3,45.1,34.7,43.5z M31.2,47.4c0,0.4-0.2,0.7-0.5,0.9
		c-0.3,0-0.7-0.2-0.9-0.4c-0.7-0.5-1.2-1.3-1.5-2.1c-0.6-1.7-0.2-3.2,0.3-3.3h0.1l0.8,0.3c0.7,0.5,1.2,1.3,1.4,2.1l0,0
		C31.2,45.7,31.3,46.6,31.2,47.4z"/>
	<path class="st0" d="M68.8,38.7c-1.6-0.5-3.3-0.2-4.6,0.9c-1.3,1-2.3,2.3-2.9,3.9c-0.6,1.6-0.7,3.3-0.3,4.9c0.3,1.6,1.4,3,3,3.6
		c0.4,0.2,0.9,0.3,1.4,0.3c1.2,0,2.3-0.4,3.2-1.1c1.3-1.1,2.2-2.4,2.8-4C72.8,43.5,71.6,39.8,68.8,38.7z M67.7,45.8
		c-0.3,0.8-0.8,1.6-1.5,2.1c-0.2,0.2-0.6,0.4-0.9,0.4c-0.3-0.2-0.5-0.5-0.5-0.9c-0.1-0.8,0-1.7,0.3-2.5l0,0c0.2-0.8,0.7-1.6,1.4-2.1
		l0.8-0.3h0.1C67.9,42.6,68.3,44.1,67.7,45.8z"/>
	<path class="st0" d="M72.8,10.1C67.5,7.5,59,6,48,13.7C37,6,28.5,7.5,23.2,10.1C14.1,14.7,8,26.2,8,38.7C8,65.9,40.2,88,48,88
		s40-22.1,40-49.3C88,26.2,81.9,14.7,72.8,10.1z M48,84c-4.3,0-36-18.9-36-45.3c0-10.9,5.3-21.2,13-25c2.2-1.1,4.6-1.7,7.1-1.7
		c4.6,0,9.6,1.9,14.7,5.7c0.7,0.6,1.7,0.6,2.4,0c7.8-5.8,15.4-7.2,21.8-4s13,14.1,13,25C84,65.1,52.3,84,48,84z"/>
</g>
</svg>
