<?xml version="1.0" encoding="utf-8"?>
<!-- Generator: Adobe Illustrator 26.0.2, SVG Export Plug-In . SVG Version: 6.00 Build 0)  -->
<svg version="1.1" id="Layer_1" xmlns="http://www.w3.org/2000/svg" xmlns:xlink="http://www.w3.org/1999/xlink" x="0px" y="0px"
	 viewBox="0 0 96 96" style="enable-background:new 0 0 96 96;" xml:space="preserve">
<style type="text/css">
	.st0{fill:#FFFFFF;}
</style>
<g>
	<path class="st0" d="M40,38c0,1.1,0.9,2,2,2s2-0.9,2-2c0-3.3-2.7-6-6-6s-6,2.7-6,6c0,1.1,0.9,2,2,2s2-0.9,2-2s0.9-2,2-2
		S40,36.9,40,38z"/>
	<path class="st0" d="M58,32c-3.3,0-6,2.7-6,6c0,1.1,0.9,2,2,2s2-0.9,2-2s0.9-2,2-2s2,0.9,2,2s0.9,2,2,2s2-0.9,2-2
		C64,34.7,61.3,32,58,32z"/>
	<path class="st0" d="M86.4,60l-6.5-1.3c0-0.9,0.1-1.8,0.1-2.7v-6.8l6.4-1.2c1.1-0.2,1.8-1.3,1.6-2.4c-0.3-1.1-1.3-1.7-2.4-1.6
		l-5.7,1.2c-0.4-3.7-1.4-7.2-2.9-10.6c7.1-8.9,2.9-21.6-1.6-26c-0.7-0.8-1.9-0.8-2.7-0.1c0,0-0.1,0.1-0.1,0.1L61.9,19.2
		c-8.8-4.3-19-4.3-27.8,0L23.4,8.6c-0.7-0.8-1.9-0.8-2.7-0.1c0,0-0.1,0.1-0.1,0.1c-4.5,4.4-8.7,17.1-1.6,26
		c-1.5,3.4-2.5,6.9-2.9,10.6L10.4,44c-1.1-0.2-2.2,0.5-2.4,1.6c-0.2,1.1,0.5,2.2,1.6,2.4l6.4,1.2V56c0,0.9,0.1,1.8,0.1,2.7L9.6,60
		c-1.1,0.2-1.8,1.3-1.6,2.4c0.2,0.9,1,1.6,2,1.6h0.4l6.3-1.3C20.4,80,37.4,91,54.7,87.3c12.4-2.6,22-12.3,24.6-24.6l6.3,1.3H86
		c1,0,1.8-0.7,2-1.6C88.2,61.3,87.5,60.2,86.4,60z M73.8,13c2.7,4,4.6,11.7,1.1,17.7c-2.4-3.8-5.6-7-9.3-9.4L73.8,13z M22.2,13
		l8.2,8.3c-3.7,2.4-6.9,5.6-9.3,9.4C17.6,24.7,19.5,17,22.2,13z M48,84c-13.2-0.1-24.6-9.2-27.4-22.1l9.8-1.9
		c1.1-0.2,1.8-1.3,1.6-2.4c-0.3-1.1-1.3-1.7-2.4-1.6l-9.5,1.9c0-0.6-0.1-1.2-0.1-1.9v-6l9.6,2H30c1,0,1.8-0.7,2-1.6
		c0.2-1.1-0.5-2.2-1.6-2.4l-10.3-2C21.4,30.6,35,19.2,50.4,20.5C64,21.6,74.7,32.4,75.9,46l-10.3,2c-1.1,0.2-1.8,1.3-1.6,2.4
		c0.2,0.9,1,1.6,2,1.6h0.4l9.6-2v6c0,0.7-0.1,1.3-0.1,1.9L66.4,56c-1.1-0.1-2.1,0.5-2.4,1.6c-0.2,1.1,0.5,2.2,1.6,2.4l9.8,1.9
		C72.6,74.8,61.2,83.9,48,84z"/>
	<path class="st0" d="M56,68c-1.1,0-2,0.9-2,2s-0.9,2-2,2s-2-0.9-2-2v-2.2c3.5-0.7,6-3,6-5.8s-3.5-6-8-6s-8,2.6-8,6
		c0,3.4,2.5,5.1,6,5.8V70c0,1.1-0.9,2-2,2s-2-0.9-2-2s-0.9-2-2-2s-2,0.9-2,2c0,3.3,2.7,6,6,6c1.5,0,2.9-0.6,4-1.6
		c1.1,1,2.5,1.6,4,1.6c3.3,0,6-2.7,6-6C58,68.9,57.1,68,56,68z M44,62c0-0.8,1.6-2,4-2s4,1.2,4,2s-1.6,2-4,2S44,62.8,44,62z"/>
</g>
</svg>
